<?xml version="1.0" encoding="UTF-8"?>
<svg width="150px" height="62px" viewBox="0 0 150 62" version="1.1" xmlns="http://www.w3.org/2000/svg" xmlns:xlink="http://www.w3.org/1999/xlink">
    <!-- Generator: Sketch 55.2 (78181) - https://sketchapp.com -->
    <title>Group 2</title>
    <desc>Created with Sketch.</desc>
    <defs>
        <polygon id="path-1" points="53.0506329 49.4702532 0 49.4702532 0 0.0949367089 53.0506329 0.0949367089"></polygon>
    </defs>
    <g id="Page-1" stroke="none" stroke-width="1" fill="none" fill-rule="evenodd">
        <g id="Screen1" transform="translate(-165.000000, -70.000000)">
            <g id="Group-2" transform="translate(165.000000, 70.000000)">
                <g id="Group" transform="translate(67.911392, 10.379747)" fill="#0079C1" fill-rule="nonzero">
                    <path d="M8.65632911,26.4164557 L8.65632911,19.0018987 C8.60867116,18.9666739 8.55705419,18.9371482 8.50253165,18.9139241 L5.65759494,19.2987342 L5.65759494,20.0512658 L6.84050633,20.3658228 L6.84050633,25.664557 C6.47739325,25.8920463 6.0877836,26.0742043 5.68037975,26.206962 C5.28291139,26.3348101 4.95253165,26.3987342 4.69113924,26.3987342 C4.19240506,26.3987342 3.83860759,26.2620253 3.63417722,25.9879747 C3.42911392,25.7139241 3.32721519,25.2974684 3.32721519,24.7373418 C3.32721519,23.7702532 3.32468354,22.8113924 3.31898734,21.8607595 C3.31265823,20.9113924 3.31012658,19.9575949 3.31012658,19.0018987 L3.15443038,18.9322785 L0.311392405,19.3164557 L0.311392405,20.0506329 C0.505696203,20.1094937 0.7,20.164557 0.894303797,20.2177215 C1.08860759,20.2696203 1.28227848,20.3253165 1.47658228,20.3829114 L1.47658228,25.4892405 C1.47658228,26.3753165 1.68544304,26.9936709 2.10253165,27.3436709 C2.51898734,27.6936709 3.10443038,27.8683544 3.85886076,27.8683544 C4.11012658,27.8683544 4.39240506,27.8506329 4.70696203,27.8151899 C5.02088608,27.7803797 5.31518987,27.7278481 5.58924051,27.6582278 C6.01273731,27.274408 6.42988251,26.8836377 6.84050633,26.4860759 C6.85189873,26.4981013 6.86265823,26.5037975 6.87468354,26.5037975 L7.26835443,27.7803797 L7.4056962,27.8329114 L9.97594937,27.4835443 L9.97594937,26.7310127 C9.74810127,26.6734177 9.52531646,26.6202532 9.30822785,26.5740506 C9.08957319,26.5272916 8.87219718,26.4747415 8.65632911,26.4164557 L8.65632911,26.4164557 Z M19.5892405,21.3101266 C19.5892405,20.4594937 19.3892405,19.8468354 18.9879747,19.4746835 C18.5873418,19.1012658 18.0018987,18.9151899 17.2348101,18.9151899 C16.9708861,18.9151899 16.6816456,18.9316456 16.3658228,18.9670886 C16.0506329,19.0018987 15.75,19.0544304 15.4632911,19.1246835 L14.2259494,20.3139241 C14.214557,20.3139241 14.2082278,20.3101266 14.2082278,20.3050633 C14.2082278,20.2987342 14.2031646,20.2955696 14.1917722,20.2955696 L13.7968354,19.0189873 L13.6436709,18.9493671 C13.2417805,19.0200123 12.8387742,19.0841557 12.4348101,19.1417722 C12.0297468,19.2006329 11.6265823,19.264557 11.2272152,19.3341772 L11.2272152,20.0683544 L12.4094937,20.3835443 L12.4094937,26.4512658 L11.106962,26.9240506 L11.1417722,27.6582278 L15.4424051,27.6582278 L15.4594937,26.8886076 L14.2253165,26.521519 C14.214557,25.4265823 14.2082278,24.4455696 14.2082278,23.5835443 L14.2082278,21.1531646 C14.5968354,20.9316456 14.9740506,20.7588608 15.3398734,20.6367089 C15.7050633,20.5151899 16.0481013,20.4531646 16.3670886,20.4531646 C16.8924051,20.4531646 17.2531646,20.5848101 17.4474684,20.8468354 C17.6417722,21.1088608 17.7386076,21.5196203 17.7386076,22.0797468 L17.7386076,26.4689873 L16.5044304,26.9056962 L16.5221519,27.6575949 L20.7544304,27.6575949 L20.7892405,26.8886076 L19.5892405,26.521519 L19.5892405,21.3101266 L19.5892405,21.3101266 Z M23.385443,15.5740506 C23.1512658,15.806962 23.0335443,16.093038 23.0335443,16.4310127 C23.0335443,16.7696203 23.1417722,17.0575949 23.3594937,17.2968354 C23.5765823,17.535443 23.8670886,17.6556962 24.2329114,17.6556962 C24.5873418,17.6556962 24.878481,17.535443 25.1075949,17.2968354 C25.3327533,17.0655204 25.4560442,16.7537609 25.45,16.4310127 C25.45,16.0936709 25.3360759,15.806962 25.1075949,15.5740506 C24.8778481,15.3411392 24.5879747,15.2246835 24.2329114,15.2246835 C23.9018987,15.2246835 23.6189873,15.3411392 23.3848101,15.5740506 L23.385443,15.5740506 Z M25.2018987,22.735443 C25.1955696,21.4822785 25.193038,20.2196203 25.193038,18.9493671 L25.0386076,18.8797468 L22.2113924,19.3164557 L22.2113924,20.0506329 C22.4025316,20.1094937 22.5968354,20.164557 22.7936709,20.2170886 C22.9911392,20.2702532 23.1848101,20.3246835 23.3759494,20.3835443 L23.3759494,26.4341772 L22.0405063,26.9411392 C22.0412134,27.1805585 22.0526172,27.4198266 22.0746835,27.6582278 L26.5297468,27.6582278 C26.5297468,27.5297468 26.5316456,27.4107595 26.5379747,27.2993671 C26.5439464,27.1800515 26.546901,27.0606041 26.5468365,26.9411392 L25.2272152,26.521519 C25.2158228,25.2506329 25.206962,23.9886076 25.2018987,22.735443 L25.2018987,22.735443 Z M35.2050633,19.0373418 L34.2367089,19.0721519 C33.8943038,19.0835443 33.5721519,19.0955696 33.2683544,19.106962 C32.9658228,19.1189873 32.7639241,19.1240506 32.6607595,19.1240506 L32.6607595,19.9113924 L33.7234177,20.2613924 C33.6886076,20.3310127 33.6259494,20.4943038 33.5348101,20.7506329 C33.443038,21.006962 33.3348101,21.3164557 33.2088608,21.6772152 C33.0829114,22.0392405 32.9493671,22.4265823 32.806962,22.8405063 L32.4044304,24.0031646 C32.2778481,24.364557 32.1702532,24.6765823 32.078481,24.9398734 C32.0230855,25.1004956 31.9656971,25.2604236 31.9063291,25.4196203 L31.8208861,25.4196203 L30.1936709,20.9955696 C30.0670886,20.6696203 29.9613924,20.328481 29.8765823,19.9721519 C29.7974712,19.6593693 29.7428753,19.3408931 29.7132911,19.0196203 L26.8170886,19.1424051 L26.8170886,19.928481 L27.7082278,20.2436709 C28.0158093,20.9584954 28.3185589,21.6753894 28.6164557,22.3943038 C28.8335443,22.9196203 29.064557,23.4816456 29.3101266,24.0816456 C29.5563291,24.6822785 29.7873418,25.2449367 30.0044304,25.7696203 C30.2221519,26.2943038 30.4132911,26.7550633 30.5791139,27.1506329 C30.7443038,27.5468354 30.8556962,27.8037975 30.9126582,27.9208861 L31.9924051,27.693038 L34.2373418,22.3765823 C34.4778481,21.8170886 34.7221519,21.3183544 34.9746835,20.8816456 C35.2107821,20.4619398 35.5245916,20.090996 35.8993671,19.7886076 L35.8139241,19.0196203 C35.7107595,19.0196203 35.5075949,19.0259494 35.2050633,19.0373418 L35.2050633,19.0373418 Z M43.2196203,20.2170886 C42.9563291,19.8379747 42.5943038,19.5291139 42.1310127,19.2905063 C41.6689873,19.0512658 41.0601266,18.9322785 40.3063291,18.9322785 C39.4949367,18.9322785 38.8265823,19.0658228 38.3018987,19.3341772 C37.7759494,19.6025316 37.3588608,19.9525316 37.0506329,20.3835443 C36.7386913,20.8222272 36.5170948,21.3185603 36.3987342,21.8436709 C36.2731322,22.3853072 36.2100619,22.9395613 36.2107538,23.4955696 C36.2107538,24.1841772 36.2848101,24.7987342 36.4335443,25.3411392 C36.5816456,25.8829114 36.8164557,26.3436709 37.1360759,26.7227848 C37.4556962,27.1006329 37.8734177,27.3898734 38.3873418,27.5879747 C38.9012658,27.7860759 39.5177215,27.885443 40.2379747,27.885443 C40.8544304,27.885443 41.4544304,27.7917722 42.0373418,27.6056962 C42.6196203,27.4196203 43.1278481,27.1740506 43.5620253,26.871519 L43.2367089,25.9449367 C42.7677215,26.143038 42.3189873,26.2803797 41.8917722,26.3550633 C41.4632911,26.4310127 41.1177215,26.4689873 40.8544304,26.4689873 C40.3518987,26.4689873 39.9316456,26.4018987 39.5949367,26.2677215 C39.2717785,26.1439894 38.9878209,25.9356664 38.7727848,25.664557 C38.5613924,25.3968354 38.4101266,25.0639241 38.3189873,24.6677215 C38.2265823,24.271519 38.1816456,23.8107595 38.1816456,23.2860759 L43.75,22.9886076 L43.9050633,22.7962025 C43.893038,22.3658228 43.8417722,21.9227848 43.75,21.4683544 C43.6613714,21.019158 43.480796,20.5931467 43.2196203,20.2170886 L43.2196203,20.2170886 Z M38.2158228,22.464557 C38.2158228,22.2196203 38.2436709,21.9607595 38.3018987,21.6860759 C38.3588608,21.4126582 38.4582278,21.1556962 38.6012658,20.9164557 C38.7461294,20.6753112 38.9455706,20.4715344 39.1835443,20.321519 C39.4297468,20.1651899 39.7468354,20.0860759 40.1348101,20.0860759 C40.4772152,20.0860759 40.7525316,20.1474684 40.9575949,20.2696203 C41.1632911,20.3924051 41.3234177,20.5493671 41.4373418,20.7417722 C41.5512658,20.9341772 41.628481,21.15 41.6689873,21.3892405 C41.7082278,21.6278481 41.728481,21.8639241 41.728481,22.0974684 L38.2158228,22.464557 L38.2158228,22.464557 Z M51.4740506,18.7746647 C51.1886076,18.7746647 50.9113924,18.821519 50.6424051,18.9139241 C50.3776365,19.0058371 50.1224283,19.1232668 49.8803797,19.264557 C49.6405063,19.4037975 49.4151899,19.5613924 49.2031646,19.7367089 C48.9924051,19.9113924 48.8006329,20.0803797 48.6297468,20.243038 L48.5949367,20.2259494 L48.3037975,19.0018987 L48.1493671,18.914557 L45.6132911,19.3170886 L45.6132911,20.0512658 L46.7955696,20.3664557 L46.7955696,26.4341772 L45.4417722,26.9240506 L45.4765823,27.6582278 L49.9322785,27.6582278 L49.9493671,26.9240506 L48.6120253,26.521519 L48.6120253,20.8734177 L51.4227848,21.0829114 C51.6050633,20.85 51.7449367,20.5816456 51.8424051,20.278481 C51.9386076,19.9746835 51.9879747,19.6835443 51.9879747,19.4037975 C51.9879747,19.1708861 51.9367089,19.0082278 51.8341772,18.914557 C51.7364329,18.8236048 51.6075608,18.7735508 51.4740506,18.7746647 L51.4740506,18.7746647 Z M58.564557,23.5835443 C58.3231912,23.3607597 58.0522914,23.1722799 57.7594937,23.0234177 C57.4029339,22.8413949 57.0398209,22.6725051 56.6708861,22.5170886 C56.3392405,22.3772152 56.0506329,22.2550633 55.8050633,22.15 C55.593743,22.0628233 55.3904391,21.9573594 55.1974684,21.8348101 C55.0373418,21.7297468 54.9196203,21.6158228 54.8462025,21.493038 C54.7697976,21.3638742 54.7312015,21.2158494 54.7348101,21.0658228 C54.7348101,20.7386076 54.8487342,20.4943038 55.0765823,20.3316456 C55.3056962,20.1677215 55.6018987,20.0860759 55.9683544,20.0860759 C56.1844818,20.0924387 56.3995463,20.1189245 56.6107595,20.1651899 C56.8791139,20.2170886 57.1449367,20.3246835 57.4082278,20.4879747 L58.0411392,21.9050633 L58.693038,21.835443 C58.693038,21.45 58.6955696,21.0683544 58.7018987,20.6892405 C58.706962,20.3107595 58.7094937,19.9297468 58.7094937,19.5436709 C58.27281,19.3098337 57.8014073,19.1476421 57.3132911,19.0632911 C56.8696184,18.9807578 56.4196146,18.9369221 55.9683544,18.9322785 C55.3860759,18.9322785 54.8943038,18.9993671 54.4943038,19.1329114 C54.0943038,19.2670886 53.7721519,19.4449367 53.5259494,19.6664557 C53.2803797,19.8879747 53.1006329,20.1443038 52.9867089,20.4360759 C52.8721519,20.7272152 52.814557,21.0303797 52.814557,21.3455696 C52.814557,21.7297468 52.8924051,22.0531646 53.0468354,22.3158228 C53.2006329,22.578481 53.4063291,22.8050633 53.6632911,22.9981013 C53.9202532,23.1898734 54.2088608,23.3588608 54.528481,23.5050633 L55.5056962,23.9506329 C55.756962,24.0670886 55.9911392,24.1753165 56.2082278,24.2746835 C56.4253165,24.3734177 56.6164557,24.4816456 56.7822785,24.5981013 C56.9474684,24.7139241 57.0765823,24.8512658 57.1677215,25.0088608 C57.2588608,25.1664557 57.3050633,25.3563291 57.3050633,25.5765823 C57.3050633,25.985443 57.1417722,26.2797468 56.8164557,26.4601266 C56.4911392,26.6411392 56.0759494,26.7316456 55.5740506,26.7316456 C55.3462025,26.7316456 55.0740506,26.6936709 54.7601266,26.6177215 C54.4609282,26.5487653 54.17844,26.4209679 53.9291139,26.2417722 L53.1924051,24.6848101 C53.0934588,24.7101227 52.9933407,24.730611 52.8924051,24.7462025 C52.7835443,24.7639241 52.6835443,24.7841772 52.5924051,24.8082278 L52.7297468,27.2734177 C53.0613924,27.471519 53.4829114,27.6265823 53.9974684,27.7367089 C54.5120253,27.8474684 55.043038,27.9031646 55.5911392,27.9031646 C56.2189873,27.9031646 56.7651899,27.835443 57.2278481,27.7018987 C57.6905063,27.5677215 58.0696203,27.3841772 58.3670886,27.1512658 C58.664557,26.9177215 58.8841772,26.6411392 59.0272152,26.3196203 C59.1715127,25.9921054 59.2444368,25.6376251 59.2411392,25.2797468 C59.2411392,24.8949367 59.1841772,24.5689873 59.0702532,24.3006329 C58.9531848,24.0289911 58.780735,23.7847589 58.5639241,23.5835443 L58.564557,23.5835443 Z M62.678481,17.6556962 C63.0329114,17.6556962 63.3240506,17.5360759 63.5531646,17.2968354 C63.7787118,17.0654684 63.9022481,16.7534366 63.8962025,16.4303797 C63.8962025,16.093038 63.7816456,15.8075949 63.5531646,15.5740506 C63.3240506,15.3417722 63.0335443,15.2246835 62.678481,15.2246835 C62.3474684,15.2246835 62.064557,15.3417722 61.8303797,15.5740506 C61.5962025,15.8082278 61.4791139,16.093038 61.4791139,16.4303797 C61.4791139,16.7689873 61.5879747,17.0575949 61.8056962,17.2974684 C62.0221519,17.5360759 62.3126582,17.6556962 62.6791139,17.6556962 L62.678481,17.6556962 Z M63.6474684,22.735443 C63.6411392,21.4822785 63.6386076,20.2196203 63.6386076,18.9493671 L63.4848101,18.8797468 L60.656962,19.3164557 L60.656962,20.0506329 C60.8481013,20.1094937 61.0424051,20.164557 61.2392405,20.2170886 C61.4367089,20.2702532 61.6310127,20.3246835 61.8221519,20.3835443 L61.8221519,26.4341772 L60.4860759,26.9411392 C60.4860759,27.0696203 60.4879747,27.1886076 60.4943038,27.2993671 C60.5,27.4107595 60.5075949,27.5297468 60.5196203,27.6582278 L64.9753165,27.6582278 C64.9753165,27.5297468 64.978481,27.4107595 64.9835443,27.2993671 C64.9897271,27.1800569 64.9928927,27.0606094 64.993038,26.9411392 L63.6734177,26.521519 C63.6607595,25.2506329 63.6525316,23.9886076 63.6474684,22.735443 L63.6474684,22.735443 Z M71.5544304,26.2594937 C71.1886076,26.3411392 70.885443,26.4050633 70.6455696,26.4506329 C70.4085968,26.4977733 70.1675655,26.5215161 69.9259494,26.521519 C69.4696203,26.521519 69.1518987,26.4107595 68.9753165,26.1886076 C68.7981013,25.9658228 68.7094937,25.6443038 68.7094937,25.2240506 L68.7094937,20.1037975 L71.2455696,20.1037975 L71.2455696,19.1246835 L68.7094937,19.1246835 L68.7094937,16.921519 C68.6863783,16.8976969 68.6601998,16.8770521 68.6316456,16.8601266 C68.6031802,16.8427937 68.5768407,16.8221894 68.5531646,16.7987342 L67.5848101,17.0962025 L66.9626582,18.9493671 C66.7335443,19.0424051 66.5101266,19.1265823 66.293038,19.2031646 C66.0759494,19.2791139 65.8588608,19.3632911 65.6424051,19.4563291 L65.6424051,20.1037975 L66.8588608,20.1037975 L66.8588608,25.2974684 C66.8588608,25.7518987 66.8936709,26.1398734 66.9626582,26.4601266 C67.0322785,26.7810127 67.1525316,27.0462025 67.3259494,27.2563291 C67.4987342,27.4658228 67.7316456,27.6208861 68.0259494,27.7196203 C68.3196203,27.8183544 68.6905063,27.8677215 69.1373418,27.8677215 C70.0398734,27.8677215 70.9373418,27.6493671 71.828481,27.2120253 C71.7832207,27.0536474 71.7374399,26.8954187 71.6911392,26.7373418 C71.6439967,26.5783017 71.5984248,26.4188003 71.5544304,26.2588608 L71.5544304,26.2594937 Z M81.3297468,19.421519 C81.3126582,19.2936709 81.2981013,19.164557 81.2867089,19.0367089 L78.1335443,19.1417722 C78.1335443,19.2702532 78.1310127,19.3949367 78.1253165,19.5177215 C78.1202532,19.6398734 78.1170886,19.7651899 78.1170886,19.893038 L79.1791139,20.2607595 C78.8491118,21.2131881 78.5206304,22.1661429 78.1936709,23.1196203 L77.2088608,25.9968354 L77.1398734,25.9968354 C76.8775512,25.170746 76.5947637,24.3512953 76.2917722,23.5392405 C75.9868275,22.7225636 75.7040238,21.8977896 75.4436709,21.0658228 C75.3170886,20.6924051 75.2208861,20.3316456 75.1525316,19.9810127 C75.0835443,19.6310127 75.0379747,19.3164557 75.0151899,19.0367089 L72.1196203,19.1594937 L72.1196203,19.9462025 L73.0107595,20.2607595 L74.4411392,23.985443 C74.9155476,25.2222268 75.3923417,26.4580941 75.871519,27.693038 L76.4892405,27.7626582 L76.0607595,28.9 C76.0085706,29.0431537 75.9483483,29.1832497 75.8803797,29.3196203 C75.8063291,29.4702532 75.7177215,29.6170886 75.614557,29.7563291 C75.5113433,29.8966621 75.387346,30.020446 75.2468354,30.1234177 C75.1019955,30.2295841 74.9349169,30.3014366 74.7582278,30.3335443 L73.25,29.4588608 C73.021519,29.5639241 72.8386076,29.721519 72.7018987,29.9316456 C72.5707307,30.1221005 72.4991335,30.3472461 72.4962025,30.578481 C72.4962025,30.9164557 72.65,31.1816456 72.9588608,31.3740506 C73.2670886,31.5664557 73.6379747,31.6626582 74.0727848,31.6626582 C74.7468354,31.6626582 75.3151899,31.4297468 75.7778481,30.9632911 C76.2405063,30.4962025 76.6259494,29.878481 76.9341772,29.1088608 L78.3392405,25.7518987 C78.8075949,24.6322785 79.2708861,23.5075949 79.7278481,22.3772152 C79.9556962,21.8170886 80.1981013,21.3164557 80.4556962,20.8727848 C80.7126582,20.4303797 81.0189873,20.0746835 81.3727848,19.8063291 C81.3613924,19.678481 81.3474684,19.55 81.3297468,19.421519 L81.3297468,19.421519 Z M22.8037975,8.06202532 L22.8367089,1.82594937 L24.4050633,1.43860759 L24.3392405,0.393037975 C24.3392405,0.393037975 23.6259494,0.458860759 22.771519,0.458860759 C21.9170886,0.458860759 19.7310127,0.393037975 19.7310127,0.393037975 L19.6487342,1.37088608 L21.085443,1.84303797 L21.085443,7.32088608 C21.085443,7.77025316 21.0474684,8.19177215 20.9702532,8.58481013 C20.8936709,8.97848101 20.7588608,9.31835443 20.5670886,9.60443038 C20.3689992,9.89635865 20.0956319,10.1292676 19.7759494,10.278481 C19.4417722,10.4417722 19.0227848,10.5227848 18.5170886,10.5227848 C17.956962,10.5227848 17.506962,10.4449367 17.1664557,10.2867089 C16.8265823,10.1297468 16.5632911,9.91898734 16.3765823,9.65506329 C16.1905063,9.39113924 16.0664557,9.08544304 16.0063291,8.73607595 C15.9443706,8.36846383 15.9140906,7.99621059 15.9158228,7.62341772 L15.9158228,1.84303797 L17.4518987,1.45506329 L17.4025316,0.426582278 C17.4025316,0.426582278 17.0373418,0.493037975 15.6132911,0.493037975 C14.1892405,0.493037975 12.0018987,0.426582278 12.0018987,0.426582278 L11.9196203,1.38797468 L13.4056962,1.86012658 L13.4056962,8.31518987 C13.4056962,9.11265823 13.5537975,9.76772152 13.8512658,10.278481 C14.1487342,10.7905063 14.5227848,11.1917722 14.9746835,11.4835443 C15.4253569,11.775838 15.9265128,11.9816661 16.4525316,12.0905063 C16.9867089,12.2025316 17.4905063,12.2588608 17.9639241,12.2588608 C18.5031646,12.2588608 19.0588608,12.2018987 19.6322785,12.0905063 C20.1890153,11.9843212 20.7193712,11.7694689 21.193038,11.4582278 C21.6601266,11.1493671 22.0436709,10.7227848 22.3411392,10.1772152 C22.6386076,9.63291139 22.7924051,8.9278481 22.8031646,8.06202532 L22.8037975,8.06202532 Z M28.1246835,11.9392405 L28.9012658,11.9392405 C29,11.9392405 29.1759494,11.9417722 29.4291139,11.9474684 L30.2303797,11.9639241 L31.0227848,11.9810127 C31.2708861,11.9873418 31.4278481,11.9892405 31.4936709,11.9892405 C32.2537975,11.9892405 32.914557,11.8917722 33.4759494,11.6943038 C34.0373418,11.4981013 34.5164557,11.2392405 34.9126582,10.9189873 C35.2994321,10.6104577 35.6292918,10.2366881 35.8873418,9.81455696 C36.1405063,9.39936709 36.3360759,8.97594937 36.4734177,8.54240506 C36.6113924,8.11075949 36.7075949,7.68291139 36.7632911,7.26202532 C36.8177215,6.84050633 36.8455696,6.4556962 36.8455696,6.10696203 C36.8455696,5.41075949 36.7512658,4.71962025 36.564557,4.03417722 C36.3835209,3.3613665 36.0657255,2.73310101 35.6310127,2.18860759 C35.1962025,1.64367089 34.6151899,1.20189873 33.8886076,0.865822785 C33.1620253,0.528481013 32.2639241,0.359493671 31.1968354,0.359493671 C30.9981013,0.359493671 30.8025316,0.362658228 30.6101266,0.367721519 C30.4177215,0.374050633 30.2196203,0.382278481 30.0151899,0.393670886 C29.8113924,0.40443038 29.5860759,0.412658228 29.3386076,0.418987342 C29.0905063,0.424683544 28.8126582,0.42721519 28.5044304,0.42721519 L27.9094937,0.42721519 C27.7335443,0.42721519 27.5550633,0.424683544 27.3734177,0.418987342 C27.1911392,0.412658228 26.9987342,0.407594937 26.7949367,0.401898734 C26.5499409,0.395271445 26.3049975,0.386832396 26.0601266,0.376582278 L25.9449367,1.40443038 L27.2658228,1.80949367 L27.2658228,10.5740506 L25.7962025,11.028481 L25.8949367,11.9892405 C26.2031646,11.978481 26.4816456,11.9702532 26.7291139,11.9639241 L27.4386076,11.9474684 C27.664557,11.9411392 27.893038,11.9392405 28.1246835,11.9392405 L28.1246835,11.9392405 Z M29.7765823,1.99493671 C29.8968354,1.9835443 30.0335443,1.97594937 30.1873418,1.96962025 C30.3405063,1.96392405 30.4949367,1.96068693 30.6481013,1.96068693 C31.1119705,1.95830951 31.5740838,2.01790957 32.0221519,2.13797468 C32.4556962,2.2556962 32.8367089,2.46708861 33.1658228,2.77025316 C33.4949367,3.07405063 33.7582278,3.48924051 33.9556962,4.01708861 C34.1531646,4.54556962 34.2518987,5.21962025 34.2518987,6.03987342 C34.2518987,6.61265823 34.1968354,7.1664557 34.0873418,7.7 C33.9772152,8.2335443 33.7993671,8.70632911 33.5525316,9.11582278 C33.3114895,9.52008824 32.9717653,9.85654586 32.5651899,10.0936709 C32.1537975,10.335443 31.6518987,10.4556962 31.0594937,10.4556962 C30.8613924,10.4556962 30.6462025,10.4468354 30.4094937,10.4303797 C30.1963187,10.4172509 29.9846125,10.3863418 29.7765823,10.3379747 L29.7765823,1.99493671 L29.7765823,1.99493671 Z M37.6341772,10.9949367 L37.7,11.9892405 L42.506962,11.9892405 L42.5727848,10.9272152 L40.9379747,10.5734177 L40.8392405,3.37721519 L40.9050633,3.35949367 L43.2829114,6.56202532 L47.5613924,12.2417722 L48.8322785,11.9721519 C48.8322785,11.7816456 48.8386076,11.4246835 48.8493671,10.9025316 C48.8594937,10.3797468 48.8708861,9.77594937 48.8822785,9.09050633 C48.893038,8.40506329 48.9044304,7.6778481 48.9151899,6.90696203 C48.9259494,6.13797468 48.9398734,5.40759494 48.9556962,4.71708861 C48.9727848,4.02531646 48.9835443,3.42151899 48.9892405,2.90443038 C48.9949367,2.38797468 49.0031646,2.0335443 49.014557,1.84303797 L50.7151899,1.43860759 L50.6493671,0.393037975 L45.893038,0.393037975 L45.8265823,1.37151899 L47.4126582,1.80949367 L47.5607595,7.99493671 L47.4949367,8.01202532 L45.4632911,5.26455696 L42.6227848,1.43860759 C42.5114993,1.28574373 42.4067634,1.12821752 42.3088608,0.966455696 C42.1908204,0.771351143 42.0859456,0.56857902 41.9949367,0.359493671 C41.6753165,0.370886076 41.1658228,0.384810127 40.4670886,0.401898734 C39.6329551,0.418294032 38.7985535,0.415339651 37.964557,0.393037975 L37.8493671,1.37151899 L39.5506329,1.85949367 L39.335443,10.5227848 L37.6341772,10.9949367 L37.6341772,10.9949367 Z M0.311392405,10.9474684 L0.361392405,12.0126582 C0.361392405,12.0126582 2.12278481,11.9303797 3.10063291,11.9303797 C4.07848101,11.9303797 5.88987342,12.0126582 5.88987342,12.0126582 L5.94050633,10.9474684 L4.30632911,10.5506329 L4.30632911,7.13924051 C4.52151899,7.19556962 5.09240506,7.32405063 5.8164557,7.32658228 L9.26075949,12.5911392 L11.3259494,12.1183544 L11.5398734,11.3943038 L7.97278481,6.91582278 C9.26518987,6.41392405 10.5050633,5.37594937 10.1563291,3.01708861 C9.73101266,0.137341772 6.62468354,0.377848101 5.75759494,0.377848101 C4.88987342,0.377848101 2.67468354,0.786708861 0.735443038,0.288607595 L0.456962025,1.37974684 C0.456962025,1.37974684 0.971518987,1.62658228 1.81582278,1.81962025 L1.81582278,10.5816456 L0.311392405,10.9474684 L0.311392405,10.9474684 Z M7.54240506,3.83607595 C7.54240506,4.95253165 6.90063291,6.11012658 4.30632911,5.65886076 L4.30632911,2.0221519 C4.39620253,2.01582278 4.4835443,2.01202532 4.57531646,2.00316456 C6.93987342,1.7778481 7.54240506,2.70949367 7.54240506,3.83607595 Z" id="Shape"></path>
                </g>
                <path d="M30.3778481,41.1962025 C34.9259494,40.7531646 38.7651899,36.778481 40.4113924,31.2829114 C40.440562,31.1784282 40.4230168,31.0664311 40.3632927,30.9758737 C40.3035685,30.8853164 40.2075281,30.8250882 40.1,30.8107595 C37.0101266,30.3417722 33.7158228,30.0765823 30.3373418,30.0392405 C30.2354686,30.0363511 30.1366715,30.0743271 30.0629622,30.1447077 C29.9892528,30.2150882 29.9467549,30.3120261 29.9449367,30.4139241 L29.9449367,40.8259494 C29.9449367,41.05 30.1474684,41.2189873 30.3778481,41.1968354 L30.3778481,41.1962025 Z M34.5867089,9.82278481 C37.678481,11.7151899 40.1101266,15.3544304 41.2474684,19.8544304 C41.2851755,20.0120559 41.4391374,20.1130327 41.5987342,20.0848101 C46.0481013,19.2379747 49.9841772,17.9170886 52.9968354,16.2177215 C53.087086,16.1648649 53.1453913,16.0708301 53.152609,15.9664899 C53.1598267,15.8621496 53.1150245,15.7609823 53.0329114,15.6962025 C52.0887257,14.9721304 51.0932897,14.3174609 50.0544304,13.7373418 C48.4962025,12.8613924 46.7911392,12.0987342 44.9721519,11.4563291 L44.9721519,8.99556962 C44.9721519,8.98101266 44.9683544,8.96772152 44.9677215,8.95316456 L44.9677215,7.89303797 C44.9677215,6.47151899 46.0993671,5.31455696 47.4898734,5.31455696 L49.4632911,5.31455696 C49.4740506,5.31455696 49.4829114,5.31202532 49.493038,5.31139241 C49.5031646,5.31202532 49.5126582,5.31455696 49.5227848,5.31455696 C49.9107595,5.31455696 50.2253165,4.99303797 50.2253165,4.59620253 L50.2253165,0.71835443 C50.2253165,0.321518987 49.9107595,1.77635684e-14 49.5227848,1.77635684e-14 L35.8955696,1.77635684e-14 C35.506962,1.77635684e-14 35.193038,0.321518987 35.193038,0.71835443 L35.193038,4.59620253 C35.193038,4.99303797 35.506962,5.31455696 35.8955696,5.31455696 C35.9151899,5.31455696 35.9335443,5.31075949 35.9537975,5.30822785 C35.9727848,5.31075949 35.9917722,5.31455696 36.0120253,5.31455696 L37.9860759,5.31455696 C39.3759494,5.31455696 40.5075949,6.47151899 40.5075949,7.89303797 L40.5075949,10.1734177 C38.616922,9.74523601 36.7013917,9.43535216 34.7721519,9.24556962 C34.4487342,9.21329114 34.3075949,9.65253165 34.5867089,9.82341772 L34.5867089,9.82278481 Z M43.5632911,7.89303797 L43.5632911,9.22848101 C43.5632911,9.24303797 43.5664557,9.25632911 43.5670886,9.27088608 L43.5670886,10.9924051 C43.4120253,10.9449367 43.2575949,10.8962025 43.1012658,10.85 L43.1012658,7.41898734 C43.2373418,6.07848101 44.1329114,4.96772152 45.3386076,4.53860759 C44.2252424,5.29142355 43.5596489,6.54905109 43.5632911,7.89303797 L43.5632911,7.89303797 Z M48.8202532,1.43607595 L48.8202532,3.77088608 L46.4386076,3.77088608 C44.7955696,3.77088608 43.3879747,4.81075949 42.806962,6.27974684 C42.2259494,4.81139241 40.8183544,3.77088608 39.1759494,3.77088608 L36.5974684,3.77088608 L36.5974684,1.43607595 L48.8202532,1.43607595 Z M41.9120253,9.23481013 L41.9120253,7.89240506 C41.9156364,6.49260288 41.1927895,5.19114303 40.0025316,4.45443038 C41.4202532,4.82405063 42.478481,6.11582278 42.5259494,7.66772152 C42.5253165,7.70379747 42.5208861,7.73924051 42.5208861,7.77531646 L42.5208861,10.6835443 C42.3183544,10.6265823 42.1158228,10.5696203 41.9120253,10.5164557 L41.9120253,9.23417722 L41.9120253,9.23481013 Z" id="Shape" fill="#0079C1" fill-rule="nonzero"></path>
                <path d="M30.2189873,20.8341869 C33.7626582,20.7993671 37.2126582,20.4962025 40.4265823,19.9563291 C38.9094937,13.7132911 34.8075949,9.17151899 29.9455696,8.92911392 L29.9455696,20.5601266 C29.9455696,20.7120253 30.0689873,20.835443 30.2189873,20.8341869" id="Path" fill="#0079C1" fill-rule="nonzero"></path>
                <g id="Group" transform="translate(0.000000, 0.000000)">
                    <g id="Clipped">
                        <mask id="mask-2" fill="white">
                            <use xlink:href="#path-1"></use>
                        </mask>
                        <g id="a"></g>
                        <path d="M52.9265823,34.8025316 C49.8518987,33.1696203 45.8696203,31.9037975 41.3841772,31.0917722 C41.2638853,31.0701872 41.1467987,31.1432295 41.1132911,31.2607595 C39.885443,35.6651899 37.3436709,39.1924051 34.1436709,40.9594937 C33.9177215,41.0841772 34.021519,41.4227848 34.278481,41.4 C35.878905,41.2569736 37.4714804,41.0366744 39.0506329,40.7398734 C37.6037975,42.793038 35.2411392,44.0310127 32.6582278,44.0310127 L32.171519,44.0310127 C29.4932578,44.0347123 26.9995753,42.6669009 25.5632911,40.4063291 C26.5392405,40.8943038 27.5740506,41.2101266 28.6512658,41.3164557 C28.7563859,41.3254993 28.8604787,41.2900293 28.9382046,41.2186802 C29.0159306,41.1473311 29.0601602,41.0466476 29.0601266,40.9411392 L29.0601266,30.4443038 C29.0601266,30.2341772 28.8860759,30.0639241 28.6740506,30.0664557 C27.2227848,30.0822785 25.7879747,30.1455696 24.3765823,30.2481013 L24.3765823,29.4265823 C25.7924051,29.3253165 27.2303797,29.2626582 28.6841772,29.2468354 C28.8909263,29.2464926 29.058737,29.0795295 29.0601266,28.8727848 L29.0601266,22.0993671 C29.0583915,21.8928698 28.8906815,21.7262891 28.6841772,21.7259494 C27.2303797,21.7094937 25.7917722,21.6474684 24.3772152,21.5462025 L24.3772152,20.7240506 C25.8120253,20.8278481 27.271519,20.8917722 28.7481013,20.9063291 C28.8300083,20.9075117 28.9090039,20.8759745 28.9675767,20.8187086 C29.0261496,20.7614426 29.0594609,20.6831787 29.0601266,20.6012658 L29.0601266,9.21012658 C27.3835443,9.29367089 25.7993671,9.87911392 24.3765823,10.8525316 L24.3765823,9.85949367 C24.6044304,9.71898734 24.8348101,9.58544304 25.0689873,9.46329114 C25.2398734,9.37341772 25.1601266,9.11518987 24.9664557,9.13227848 C24.7689873,9.14873418 24.5740506,9.17088608 24.3772152,9.18924051 L24.3772152,9.17658228 L24.3772152,7.85759494 C24.3772152,6.45886076 25.5291139,5.32151899 26.9443038,5.32151899 L28.9531646,5.32151899 C28.9607595,5.32151899 28.9670886,5.31962025 28.9746835,5.31962025 C28.9822785,5.31962025 28.9892405,5.32151899 28.9968354,5.32151899 C29.3917722,5.32151899 29.7120253,5.00506329 29.7120253,4.61518987 L29.7120253,0.800632911 C29.7120253,0.410126582 29.3917722,0.0943037975 28.9968354,0.0943037975 L8.30063291,0.0943037975 C7.9056962,0.0943037975 7.58544304,0.410759494 7.58544304,0.800632911 L7.58544304,4.61518987 C7.58544304,5.00506329 7.9056962,5.32151899 8.30063291,5.32151899 L8.30822785,5.32088608 L8.31582278,5.32151899 L10.3246835,5.32151899 C11.7398734,5.32151899 12.8911392,6.45886076 12.8911392,7.85759494 L12.8911392,8.86202532 L12.8898734,8.87468354 L12.8898734,11.75 C11.4839011,12.2737983 10.1156833,12.8938315 8.79493671,13.6056962 C7.71898734,14.1905063 6.73417722,14.814557 5.84556962,15.4708861 C5.62405063,15.6348101 5.6556962,15.9708861 5.89936709,16.1012658 C7.87911392,17.1670886 10.2493671,18.0759494 12.8898734,18.8107595 L12.8898734,19.6594937 C9.73544304,18.7993671 6.9443038,17.6949367 4.71075949,16.378481 L4.70696203,16.3746835 C1.64303797,18.9911392 0,22.0556962 0,25.278481 C0,28.5322785 1.67468354,31.6253165 4.79683544,34.2594937 C4.9190083,34.3614963 5.09142599,34.3776054 5.23037975,34.3 C7.37088608,33.1120253 9.97468354,32.1075949 12.8898734,31.3120253 L12.8898734,32.1594937 C10.3962025,32.8525316 8.1443038,33.7018987 6.23481013,34.6911392 C6.11687091,34.7507819 6.03899388,34.8680596 6.02978059,34.9999005 C6.0205673,35.1317414 6.08137588,35.2587108 6.18987342,35.3341772 C7.02531717,35.9245022 7.8952151,36.4644898 8.79493671,36.9512658 C10.3417722,37.7917722 12.0310127,38.5246835 13.8316456,39.1462025 C13.9151899,39.1753165 13.9993671,39.171519 14.0753165,39.1462025 C16.5246835,45.1886076 22.5075949,49.4702532 29.4873418,49.4702532 L29.8791139,49.4702532 C36.271519,49.4702532 41.9974684,45.471519 44.1278481,39.5196203 C44.1335443,39.5037975 44.1348101,39.4879747 44.1392405,39.471519 C46.3101266,38.785443 48.335443,37.943038 50.1607595,36.9512658 C51.1289311,36.4279324 52.0621161,35.8423134 52.9544304,35.1981013 C53.0194413,35.1505656 53.0554644,35.0729588 53.0498086,34.9926216 C53.0441529,34.9122844 52.997612,34.84049 52.9265823,34.8025316 Z M22.9474684,7.85759494 L22.9474684,36.3291139 C22.9474684,41.3544304 27.085443,45.4436709 32.171519,45.4436709 L32.6582278,45.4436709 C36.1518987,45.4436709 39.3063291,43.5297468 40.8886076,40.4487342 C40.9056962,40.4164557 40.9170886,40.3822785 40.928481,40.3481013 C41.0455696,40.3208861 41.1607595,40.2924051 41.2778481,40.264557 C39.3455696,44.2582278 35.3037975,46.8006329 30.7708861,46.8006329 L30.5297468,46.8006329 C24.1056962,46.8006329 18.8778481,41.6360759 18.8778481,35.2879747 L18.8778481,8.86835443 C18.8778481,8.8335443 18.8734177,8.79936709 18.8727848,8.76455696 C18.9297468,6.33164557 20.9455696,4.36835443 23.421519,4.36835443 L25.0791139,4.36835443 C23.8132911,5.03164557 22.9474684,6.34620253 22.9474684,7.85822785 L22.9474684,7.85759494 Z M28.2816456,1.50696203 L28.2816456,3.80253165 L23.421519,3.80253165 C21.2536833,3.79888328 19.317883,5.15918903 18.5867089,7.2 C17.8556127,5.15940802 15.9201354,3.79915112 13.7525316,3.80253165 L9.01518987,3.80253165 L9.01518987,1.50696203 L28.2816456,1.50696203 Z M29.8791139,48.0575949 L29.4873418,48.0575949 C21.1240506,48.0575949 14.3196203,41.3341772 14.3196203,33.0702532 L14.3196203,9.18544304 L14.3208861,9.17151899 L14.3208861,7.85759494 C14.3208861,6.34556962 13.4556962,5.03101266 12.1898734,4.36772152 L13.7525316,4.36772152 C16.2278481,4.36772152 18.2443038,6.33101266 18.3006329,8.76392405 C18.3006329,8.79873418 18.2955696,8.83291139 18.2955696,8.86772152 L18.2955696,10.8670886 C18.2955696,10.885443 18.3025316,10.9012658 18.3063291,10.9183544 L18.3063291,35.2886076 C18.3063291,41.9481013 23.7898734,47.3658228 30.5297468,47.3658228 L30.7702532,47.3658228 C35.6841772,47.3658228 40.0487342,44.5208861 41.9892405,40.0886076 C42.128481,40.0525316 42.2677215,40.014557 42.406962,39.9772152 C40.2398734,44.8487342 35.3272152,48.0575949 29.8791139,48.0575949 Z" id="Shape" fill="#0079C1" fill-rule="nonzero" mask="url(#mask-2)"></path>
                    </g>
                </g>
                <path d="M54.256962,16.5018987 C54.0874138,16.3501786 53.8392724,16.3253644 53.643038,16.4405063 C50.5670886,18.2164557 46.5,19.5974684 41.8898734,20.4848101 C41.6042704,20.5403674 41.4169283,20.8158705 41.4702532,21.1018987 C41.7037975,22.4056962 41.8303797,23.7677215 41.8303797,25.1702532 C41.8303797,26.7132911 41.6797468,28.2088608 41.3993671,29.6310127 C41.3424051,29.9221519 41.5278481,30.2025316 41.8177215,30.2575949 C46.3196203,31.1183544 50.3056962,32.4487342 53.3632911,34.1575949 C53.5563291,34.2658228 53.7955696,34.2443038 53.9632911,34.0993671 C56.9873418,31.4759494 58.6075949,28.4018987 58.6075949,25.1708861 C58.6075949,22.0449367 57.0911392,19.0677215 54.256962,16.5025316 M30.3227848,29.0974684 C33.7677215,29.1341772 37.128481,29.4063291 40.2797468,29.8879747 C40.4760835,29.9216335 40.6650582,29.7978606 40.7126582,29.6044304 C41.0132911,28.2158228 41.1746835,26.7487342 41.1746835,25.2316456 C41.1746835,23.8594937 41.0405063,22.5291139 40.7924051,21.2588608 C40.7544304,21.064557 40.5607595,20.9373418 40.3563291,20.9683544 C37.1835443,21.4575949 33.7962025,21.7341772 30.3234177,21.7708861 C30.118981,21.7680518 29.9504097,21.9304111 29.9455696,22.1348101 L29.9455696,28.7341772 C29.9507489,28.9384271 30.1191174,29.100591 30.3234177,29.0981013" id="Shape" fill="#0079C1" fill-rule="nonzero"></path>
                <path d="M72.501962,59.0502532 C71.6719579,59.0502532 70.8694659,58.9377543 70.094462,58.7127532 C69.3194582,58.487752 68.6969644,58.195255 68.226962,57.8352532 L69.051962,56.0052532 C69.5019643,56.3352548 70.0369589,56.6002522 70.656962,56.8002532 C71.2769651,57.0002542 71.8969589,57.1002532 72.516962,57.1002532 C73.2069655,57.1002532 73.7169604,56.9977542 74.046962,56.7927532 C74.3769637,56.5877521 74.541962,56.3152549 74.541962,55.9752532 C74.541962,55.7252519 74.444463,55.517754 74.249462,55.3527532 C74.0544611,55.1877523 73.8044636,55.0552537 73.499462,54.9552532 C73.1944605,54.8552527 72.7819646,54.7452538 72.261962,54.6252532 C71.461958,54.4352522 70.8069646,54.2452541 70.296962,54.0552532 C69.7869595,53.8652522 69.3494639,53.5602553 68.984462,53.1402532 C68.6194602,52.7202511 68.436962,52.1602567 68.436962,51.4602532 C68.436962,50.8502501 68.601962,50.2977556 68.931962,49.8027532 C69.2619637,49.3077507 69.7594587,48.9152546 70.424462,48.6252532 C71.0894654,48.3352517 71.9019572,48.1902532 72.861962,48.1902532 C73.5319654,48.1902532 74.1869588,48.2702524 74.826962,48.4302532 C75.4669652,48.590254 76.0269596,48.8202517 76.506962,49.1202532 L75.756962,50.9652532 C74.7869572,50.4152504 73.8169669,50.1402532 72.846962,50.1402532 C72.1669586,50.1402532 71.6644637,50.2502521 71.339462,50.4702532 C71.0144604,50.6902532 70.851962,50.9802514 70.851962,51.3402532 C70.851962,51.700255 71.0394602,51.9677523 71.414462,52.1427532 C71.7894639,52.317754 72.3619582,52.4902523 73.131962,52.6602532 C73.931966,52.8502541 74.5869595,53.0402522 75.096962,53.2302532 C75.6069646,53.4202541 76.0444602,53.7202511 76.409462,54.1302532 C76.7744639,54.5402552 76.956962,55.0952497 76.956962,55.7952532 C76.956962,56.3952562 76.7894637,56.9427507 76.454462,57.4377532 C76.1194604,57.9327556 75.6169654,58.3252517 74.946962,58.6152532 C74.2769587,58.9052546 73.4619668,59.0502532 72.501962,59.0502532 Z M86.586962,50.8002532 L86.586962,58.8702532 L84.366962,58.8702532 L84.366962,57.9102532 C84.0569605,58.2602549 83.6869642,58.5277522 83.256962,58.7127532 C82.8269599,58.8977541 82.3619645,58.9902532 81.861962,58.9902532 C80.8019567,58.9902532 79.9619651,58.6852562 79.341962,58.0752532 C78.7219589,57.4652501 78.411962,56.5602592 78.411962,55.3602532 L78.411962,50.8002532 L80.751962,50.8002532 L80.751962,55.0152532 C80.751962,56.3152597 81.2969566,56.9652532 82.386962,56.9652532 C82.9469648,56.9652532 83.3969603,56.782755 83.736962,56.4177532 C84.0769637,56.0527513 84.246962,55.5102568 84.246962,54.7902532 L84.246962,50.8002532 L86.586962,50.8002532 Z M90.996962,51.8652532 C91.2769634,51.4752512 91.6544597,51.1802532 92.129462,50.9802532 C92.6044644,50.7802522 93.1519589,50.6802532 93.771962,50.6802532 L93.771962,52.8402532 C93.5119607,52.8202531 93.3369625,52.8102532 93.246962,52.8102532 C92.5769587,52.8102532 92.0519639,52.9977513 91.671962,53.3727532 C91.2919601,53.747755 91.101962,54.3102494 91.101962,55.0602532 L91.101962,58.8702532 L88.761962,58.8702532 L88.761962,50.8002532 L90.996962,50.8002532 L90.996962,51.8652532 Z M103.236962,50.8002532 L99.831962,58.8702532 L97.416962,58.8702532 L94.026962,50.8002532 L96.441962,50.8002532 L98.676962,56.2902532 L100.986962,50.8002532 L103.236962,50.8002532 Z M112.101962,54.8652532 C112.101962,54.8952533 112.086962,55.1052512 112.056962,55.4952532 L105.951962,55.4952532 C106.061963,55.9952557 106.32196,56.3902517 106.731962,56.6802532 C107.141964,56.9702546 107.651959,57.1152532 108.261962,57.1152532 C108.681964,57.1152532 109.05446,57.0527538 109.379462,56.9277532 C109.704464,56.8027525 110.006961,56.6052545 110.286962,56.3352532 L111.531962,57.6852532 C110.771958,58.5552532 109.661969,58.9902532 108.201962,58.9902532 C107.291957,58.9902532 106.486966,58.8127549 105.786962,58.4577532 C105.086959,58.1027514 104.546964,57.6102563 104.166962,56.9802532 C103.78696,56.35025 103.596962,55.6352572 103.596962,54.8352532 C103.596962,54.0452492 103.78446,53.3327563 104.159462,52.6977532 C104.534464,52.06275 105.049459,51.5677549 105.704462,51.2127532 C106.359465,50.8577514 107.091958,50.6802532 107.901962,50.6802532 C108.691966,50.6802532 109.406959,50.8502515 110.046962,51.1902532 C110.686965,51.5302549 111.18946,52.01775 111.554462,52.6527532 C111.919464,53.2877563 112.101962,54.025249 112.101962,54.8652532 Z M107.916962,52.4502532 C107.386959,52.4502532 106.941964,52.6002517 106.581962,52.9002532 C106.22196,53.2002532 106.001962,53.6102506 105.921962,54.1302532 L109.896962,54.1302532 C109.816962,53.6202506 109.596964,53.2127547 109.236962,52.9077532 C108.87696,52.6027516 108.436965,52.4502532 107.916962,52.4502532 Z M121.671962,50.8002532 L118.026962,59.3652532 C117.65696,60.2952578 117.199465,60.9502513 116.654462,61.3302532 C116.109459,61.7102551 115.451966,61.9002532 114.681962,61.9002532 C114.26196,61.9002532 113.846964,61.8352538 113.436962,61.7052532 C113.02696,61.5752525 112.691963,61.3952543 112.431962,61.1652532 L113.286962,59.5002532 C113.466963,59.660254 113.674461,59.7852527 113.909462,59.8752532 C114.144463,59.9652536 114.376961,60.0102532 114.606962,60.0102532 C114.926964,60.0102532 115.186961,59.9327539 115.386962,59.7777532 C115.586963,59.6227524 115.766961,59.365255 115.926962,59.0052532 L115.956962,58.9302532 L112.461962,50.8002532 L114.876962,50.8002532 L117.141962,56.2752532 L119.421962,50.8002532 L121.671962,50.8002532 Z" id="Survey" fill="#0079C1" fill-rule="nonzero"></path>
            </g>
        </g>
    </g>
</svg>